<svg xmlns="http://www.w3.org/2000/svg" width="25" height="25" viewBox="0 0 25 25"><defs><style>.a{fill:none;stroke:#fff;stroke-miterlimit:10;}</style></defs><g transform="translate(-76.1 -76.1)"><path class="a" d="M242.2,248.8a8.888,8.888,0,0,1,2.346-2.4" transform="translate(-161.033 -165.117)"/><path class="a" d="M189.4,377.353a8.8,8.8,0,0,1,.83-3.253" transform="translate(-109.709 -289.293)"/><path class="a" d="M190.8,541.934a8.746,8.746,0,0,1-.9-3.234" transform="translate(-110.195 -449.353)"/><path class="a" d="M248.8,698.546a8.887,8.887,0,0,1-2.4-2.346" transform="translate(-165.117 -602.513)"/><path class="a" d="M377.353,805.13a8.8,8.8,0,0,1-3.253-.83" transform="translate(-289.293 -707.622)"/><path class="a" d="M541.934,801.1a8.746,8.746,0,0,1-3.234.9" transform="translate(-449.353 -704.509)"/><path class="a" d="M698.546,690a8.887,8.887,0,0,1-2.346,2.4" transform="translate(-602.513 -596.483)"/><path class="a" d="M805.13,531.2a8.8,8.8,0,0,1-.83,3.253" transform="translate(-707.622 -442.06)"/><path class="a" d="M801.1,367.3a8.76,8.76,0,0,1,.9,3.234" transform="translate(-704.509 -282.681)"/><path class="a" d="M690,242.1a8.888,8.888,0,0,1,2.4,2.346" transform="translate(-596.483 -160.936)"/><path class="a" d="M531.2,189.4a8.8,8.8,0,0,1,3.253.83" transform="translate(-442.06 -109.709)"/><path class="a" d="M367.3,190.8a8.745,8.745,0,0,1,3.234-.9" transform="translate(-282.681 -110.195)"/><path class="a" d="M454.371,80.894v-1.7a1.31,1.31,0,0,0-.523-1.052.76.76,0,0,1-.348-.6c0-.518.671-.937,1.5-.937s1.5.419,1.5.937a.768.768,0,0,1-.348.6,1.31,1.31,0,0,0-.523,1.052v1.7" transform="translate(-366.504)"/><path class="a" d="M463.032,790.7v1.7a1.31,1.31,0,0,0,.523,1.052.76.76,0,0,1,.348.6c0,.518-.671.937-1.5.937s-1.5-.419-1.5-.937a.768.768,0,0,1,.348-.6,1.31,1.31,0,0,0,.523-1.052v-1.7" transform="translate(-373.7 -694.394)"/><path class="a" d="M80.894,463.032h-1.7a1.31,1.31,0,0,0-1.052.523.76.76,0,0,1-.6.348c-.518,0-.937-.671-.937-1.5s.419-1.5.937-1.5a.768.768,0,0,1,.6.348,1.31,1.31,0,0,0,1.052.523h1.7" transform="translate(0 -373.7)"/><path class="a" d="M790.7,454.371h1.7a1.3,1.3,0,0,0,1.052-.523.768.768,0,0,1,.6-.348c.518,0,.937.671.937,1.5s-.419,1.5-.937,1.5a.768.768,0,0,1-.6-.348,1.31,1.31,0,0,0-1.052-.523h-1.7" transform="translate(-694.394 -366.504)"/><path class="a" d="M260.141,130.422l-.373-.644-.225-.386-.258-.444a1.31,1.31,0,0,0-.978-.652.762.762,0,0,1-.6-.345c-.258-.447.115-1.146.833-1.562s1.51-.386,1.768.06a.767.767,0,0,1,0,.7,1.312,1.312,0,0,0,.074,1.173l.249.43.222.386.381.658" transform="translate(-176.029 -48.138)"/><path class="a" d="M635.888,740l.373.644.225.386.258.444a1.309,1.309,0,0,0,.978.652.77.77,0,0,1,.6.345c.258.447-.115,1.146-.833,1.562s-1.51.386-1.768-.06a.762.762,0,0,1,0-.693,1.312,1.312,0,0,0-.074-1.173l-.249-.43-.222-.386-.381-.658" transform="translate(-542.8 -645.084)"/><path class="a" d="M130.422,635.888l-.644.373-.386.225-.444.258a1.314,1.314,0,0,0-.652.978.762.762,0,0,1-.345.6c-.447.258-1.146-.115-1.562-.833s-.386-1.51.06-1.768a.768.768,0,0,1,.7,0,1.312,1.312,0,0,0,1.173-.074l.43-.249.386-.222.658-.381" transform="translate(-48.138 -542.8)"/><path class="a" d="M740,260.141l.644-.373.386-.225.444-.258a1.31,1.31,0,0,0,.652-.978.762.762,0,0,1,.345-.6c.447-.258,1.146.115,1.562.833s.386,1.51-.06,1.768a.767.767,0,0,1-.7,0,1.312,1.312,0,0,0-1.173.074l-.43.249-.386.222-.658.381" transform="translate(-645.084 -176.029)"/><path class="a" d="M126.189,267.829l-.644-.373-.386-.222-.444-.258a1.312,1.312,0,0,0-1.173-.074.762.762,0,0,1-.693,0c-.447-.258-.474-1.05-.06-1.768s1.113-1.091,1.562-.833a.762.762,0,0,1,.345.6,1.31,1.31,0,0,0,.652.978l.43.249.386.222.658.381" transform="translate(-44.637 -182.447)"/><path class="a" d="M744.233,628.2l.644.373.386.225.444.255a1.313,1.313,0,0,0,1.173.074.762.762,0,0,1,.693,0c.447.258.474,1.05.06,1.768s-1.113,1.091-1.562.833a.762.762,0,0,1-.345-.6,1.31,1.31,0,0,0-.652-.978l-.43-.249-.386-.222-.658-.378" transform="translate(-648.585 -536.382)"/><path class="a" d="M267.829,744.233l-.373.644-.225.386-.255.444a1.312,1.312,0,0,0-.074,1.173.762.762,0,0,1,0,.693c-.258.447-1.05.474-1.768.06s-1.091-1.113-.833-1.562a.762.762,0,0,1,.6-.345,1.31,1.31,0,0,0,.978-.652l.249-.43.222-.386.381-.658" transform="translate(-182.447 -648.585)"/><path class="a" d="M628.2,126.091l.373-.644.225-.386.255-.444a1.313,1.313,0,0,0,.074-1.173.768.768,0,0,1,0-.7c.258-.447,1.05-.474,1.768-.06s1.091,1.113.833,1.562a.762.762,0,0,1-.6.345,1.31,1.31,0,0,0-.978.652l-.249.43-.222.386-.381.658" transform="translate(-536.382 -44.539)"/><circle class="a" cx="1.217" cy="1.217" r="1.217" transform="translate(86.65 82.951)"/><circle class="a" cx="1.217" cy="1.217" r="1.217" transform="translate(87.637 87.604)"/><circle class="a" cx="1.217" cy="1.217" r="1.217" transform="translate(91.603 85.37)"/><circle class="a" cx="1.217" cy="1.217" r="1.217" transform="translate(82.913 86.879)"/><circle class="a" cx="1.217" cy="1.217" r="1.217" transform="translate(85.629 91.583)"/><circle class="a" cx="1.217" cy="1.217" r="1.217" transform="translate(91.247 90.138)"/></g></svg>