<svg xmlns="http://www.w3.org/2000/svg" width="42.096" height="25.183" viewBox="0 0 42.096 25.183"><defs><style>.a{fill:none;stroke:#fff;}</style></defs><g transform="translate(0.683 0.683)"><g transform="translate(0 0)"><path class="a" d="M109.066,244.354a.646.646,0,0,0-.322-.086.64.64,0,0,0-.321,1.2.639.639,0,0,0,.319.086.653.653,0,0,0,.56-.319.645.645,0,0,0-.236-.876Z" transform="translate(-101.968 -233.404)"/><path class="a" d="M102.415,297.035a.319.319,0,0,1-.033-.043c-.005-.007-.012-.014-.017-.022h0l-.018-.031-.924-1.56,0,0a.321.321,0,0,1-.057.036l-.01,0a.322.322,0,0,1-.064.022l-.01,0a.318.318,0,0,1-.059.006H101.2a.314.314,0,0,1-.069-.011h0l-2.112,1.215a1.178,1.178,0,0,0,.6,2.2,1.169,1.169,0,0,0,.579-.153l1.758-1.014a.319.319,0,0,1,.327.547,1.179,1.179,0,0,0,.622,2.187,1.169,1.169,0,0,0,.582-.155l1.473-.855a.319.319,0,0,1,.327.547,1.181,1.181,0,0,0,.621,2.189,1.178,1.178,0,0,0,.586-.157l1.887-1.091a.319.319,0,0,1,.327.547,1.182,1.182,0,0,0,1.208,2.032l1.814-1.05-9.251-5.343A.332.332,0,0,1,102.415,297.035Z" transform="translate(-93.236 -279.635)"/><path class="a" d="M144.534,194.514c-2.012.006-4.081-.167-5.538-1.562-.05-.048-.1-.1-.142-.145l-.034-.037q-.053-.06-.1-.121l-.027-.033c-.034-.045-.066-.091-.1-.137-.015-.023-.029-.046-.043-.069s-.029-.05-.043-.075-.022-.035-.031-.053l-.915,1.606-1.681,2.945-2.767,4.851,1.057,1.81,9.387,5.486h0c.026.015.053.03.08.044l.035.015a.3.3,0,0,1,.05.024,1.342,1.342,0,0,0,.515.1,1.38,1.38,0,0,0,1.194-.7,1.4,1.4,0,0,0-.472-1.877.321.321,0,0,1-.107-.435.313.313,0,0,1,.428-.113l2.123,1.244a1.363,1.363,0,0,0,.681.183,1.377,1.377,0,0,0,1.194-.692,1.414,1.414,0,0,0-.474-1.885.321.321,0,0,1-.1-.435.313.313,0,0,1,.428-.112l1.663.974a1.35,1.35,0,0,0,.678.183,1.375,1.375,0,0,0,1.193-.692,1.417,1.417,0,0,0-.473-1.885.321.321,0,0,1-.1-.435.313.313,0,0,1,.428-.112l1.975,1.161a1.362,1.362,0,0,0,.677.179,1.387,1.387,0,0,0,1.2-.69,1.4,1.4,0,0,0,.041-1.3Z" transform="translate(-124.552 -186.554)"/><path class="a" d="M393.227,248.064a.641.641,0,0,0,0,1.282.641.641,0,1,0,0-1.282Z" transform="translate(-359.091 -236.834)"/><path class="a" d="M82.8,157.286a.321.321,0,0,1,.021-.043l1.127-1.947,1.778-3.078,3-5.192s0-.008,0-.012.005-.021.007-.032c.006-.026.011-.052.019-.077s.011-.036.017-.054.011-.035.018-.052l.007-.019a1.43,1.43,0,0,1,.388-.542l.185-.322-4.646-2.679-.4.692a.32.32,0,0,1-.04.117l-5.708,9.887a.316.316,0,0,1-.08.092l-.366.634,4.645,2.678Zm-1.122-2.316a1.277,1.277,0,0,1-.636-.17,1.279,1.279,0,0,1,.638-2.386,1.284,1.284,0,0,1,.64.171,1.282,1.282,0,0,1,.468,1.749A1.294,1.294,0,0,1,81.675,154.97Z" transform="translate(-74.9 -142.11)"/><path class="a" d="M381.125,137.008l-3.275,1.886,4.772,8.271.618,1.071,3.276-1.892Z" transform="translate(-345.785 -136.487)"/><path class="a" d="M193.553,170.053l0,.009a.763.763,0,0,0,.011.28c0,.009,0,.018.007.028s.006.026.01.039l.013.041.009.024c.006.017.012.033.02.05l0,.011a1.534,1.534,0,0,0,.193.323l0,0,.048.059.011.013.046.053.021.023.042.044c.022.023.045.045.069.067,1.29,1.22,3.24,1.388,5.156,1.388h.14l.027.005.015,0,.024.008.016.006.02.01.017.008.024.014,11.1,6.663-.286-.5-5.223-9.039-.532.157a.318.318,0,0,1-.3-.069,3.657,3.657,0,0,0-2.416-1.166,4.3,4.3,0,0,0-1.651.437,4.427,4.427,0,0,1-1.68.443,2.371,2.371,0,0,1-.515-.056,10.839,10.839,0,0,0-2.307-.291,3.068,3.068,0,0,0-1.829.442.285.285,0,0,1-.021.021.829.829,0,0,0-.214.256c-.007.014-.014.028-.02.042s-.01.023-.014.035l-.01.031-.008.027C193.56,170.018,193.556,170.036,193.553,170.053Z" transform="translate(-179.274 -165.022)"/><path class="a" d="M328.442,158.719l-.667-1.155-5.543-9.6-4.642,2.683.034.057,1.542,2.673,3.1,5.364,1.92,3.323,4.642-2.678-.381-.661Zm-2.018.51a1.278,1.278,0,1,1,0-1.807A1.28,1.28,0,0,1,326.423,159.229Z" transform="translate(-291.38 -146.376)"/><path class="a" d="M53.6,133.524l-3.255-1.88-5.389,9.335,3.255,1.88Z" transform="translate(-44.952 -131.644)"/></g></g></svg>