<svg xmlns="http://www.w3.org/2000/svg" width="24" height="24" viewBox="0 0 24 24"><defs><style>.a{fill:#fff;fill-rule:evenodd;}</style></defs><path class="a" d="M21.75,0H5.25A2.249,2.249,0,0,0,3,2.25v1.5H2.25A2.249,2.249,0,0,0,0,6V21a3,3,0,0,0,3,3H21a3,3,0,0,0,3-3V2.25A2.25,2.25,0,0,0,21.75,0Zm.75,21A1.5,1.5,0,0,1,21,22.5H3A1.5,1.5,0,0,1,1.5,21V6a.75.75,0,0,1,.75-.75H3v15a.75.75,0,0,0,1.5,0v-18a.75.75,0,0,1,.75-.75h16.5a.751.751,0,0,1,.75.75Z"/><path class="a" d="M19.377,12.763h6.06a.379.379,0,0,0,0-.758h-6.06a.379.379,0,0,0,0,.758Z" transform="translate(-4.848 -3.004)"/><path class="a" d="M19.377,9.763h6.06a.379.379,0,0,0,0-.758h-6.06a.379.379,0,0,0,0,.758Z" transform="translate(-4.848 -2.253)"/><path class="a" d="M19.377,6.763h6.06a.379.379,0,1,0,0-.758h-6.06a.379.379,0,1,0,0,.758Z" transform="translate(-4.848 -1.503)"/><path class="a" d="M14.439,27H8.379a.379.379,0,1,0,0,.758h6.06a.379.379,0,1,0,0-.758Z" transform="translate(-2.024 -6.789)"/><path class="a" d="M14.439,24H8.379a.379.379,0,1,0,0,.758h6.06a.379.379,0,1,0,0-.758Z" transform="translate(-2.024 -6.007)"/><path class="a" d="M14.439,21H8.379a.379.379,0,0,0,0,.758h6.06a.379.379,0,0,0,0-.758Z" transform="translate(-2.024 -5.256)"/><path class="a" d="M25.439,27h-6.06a.379.379,0,1,0,0,.758h6.06a.379.379,0,1,0,0-.758Z" transform="translate(-4.848 -6.789)"/><path class="a" d="M25.439,24h-6.06a.379.379,0,1,0,0,.758h6.06a.379.379,0,1,0,0-.758Z" transform="translate(-4.848 -6.007)"/><path class="a" d="M25.439,21h-6.06a.379.379,0,0,0,0,.758h6.06a.379.379,0,0,0,0-.758Z" transform="translate(-4.848 -5.256)"/><path class="a" d="M22.772,15H8.379a.379.379,0,1,0,0,.758H22.772a.379.379,0,1,0,0-.758Z" transform="translate(-2.181 -3.755)"/><path class="a" d="M22.772,18H8.379a.379.379,0,0,0,0,.758H22.772a.379.379,0,0,0,0-.758Z" transform="translate(-2.181 -4.505)"/><path class="a" d="M8.758,10.819h5.3a.757.757,0,0,0,.758-.758v-5.3A.757.757,0,0,0,14.06,4h-5.3A.757.757,0,0,0,8,4.762v5.3A.757.757,0,0,0,8.758,10.819Zm.758-5.3H13.3V9.3H9.515Z" transform="translate(-2.024 -0.971)"/></svg>