<svg xmlns="http://www.w3.org/2000/svg" width="26.776" height="24" viewBox="0 0 26.776 24">
  <path id="Caminho_37673" data-name="Caminho 37673" d="M45.654,90.363a1.874,1.874,0,0,1,1.265.527,1.782,1.782,0,0,1,0,2.53l-.035.035a1.782,1.782,0,0,1-2.495-.035,1.782,1.782,0,0,1,0-2.53A1.808,1.808,0,0,1,45.654,90.363Zm.422,1.37a.648.648,0,0,0-.422-.176.582.582,0,0,0-.422.176.594.594,0,0,0,0,.843.582.582,0,0,0,.422.176.528.528,0,0,0,.387-.141l.035-.035a.594.594,0,0,0,0-.843Zm2.073,5.06H62.662a.592.592,0,0,1,.6.6v2.917h3.022a1.32,1.32,0,0,0,1.335-1.335V91.206a1.32,1.32,0,0,0-1.335-1.335H44.53a1.454,1.454,0,0,0-.949.387,1.358,1.358,0,0,0-.387.949v7.766a1.358,1.358,0,0,0,.387.949,1.454,1.454,0,0,0,.949.387h3.022V97.391A.592.592,0,0,1,48.149,96.794Zm13.915,1.195H48.747v6.817H62.064Zm1.195,3.479V105.4a.616.616,0,0,1-.6.6H48.149a.616.616,0,0,1-.6-.6v-3.936H44.53a2.522,2.522,0,0,1-1.792-.738A2.44,2.44,0,0,1,42,98.972V91.206a2.52,2.52,0,0,1,2.53-2.495H66.281a2.522,2.522,0,0,1,1.792.738,2.628,2.628,0,0,1,.7,1.757v7.766a2.561,2.561,0,0,1-.7,1.757,2.522,2.522,0,0,1-1.792.738Zm-.6-13.388H48.149a.616.616,0,0,1-.6-.6V82.6a.592.592,0,0,1,.6-.6H58.832a.582.582,0,0,1,.422.176l3.8,3.444a.7.7,0,0,1,.211.457v1.406A.616.616,0,0,1,62.662,88.079ZM48.747,86.884H62.064v-.211H58.832a.616.616,0,0,1-.6-.6V83.195H48.747Zm12.369-1.406-1.687-1.546v1.546Z" transform="translate(-42 -82)" fill="#fff" opacity="0.5"/>
</svg>
