<svg id="Componente_12_1" data-name="Componente 12 – 1" xmlns="http://www.w3.org/2000/svg" width="122.458" height="122.458" viewBox="0 0 122.458 122.458">
  <g id="Grupo_35780" data-name="Grupo 35780" transform="translate(-4067.271 1599.5)">
    <g id="Grupo_35779" data-name="Grupo 35779">
      <g id="Grupo_35778" data-name="Grupo 35778">
        <g id="Grupo_35777" data-name="Grupo 35777">
          <g id="iconfinder_cleaning-door-knob-object-hygiene_5729663" transform="translate(4065.271 -1601.5)">
            <path id="Caminho_37662" data-name="Caminho 37662" d="M3,40.287H19.328l4.157-4.157a27.367,27.367,0,0,0,5.049,14.03l.357.5,3.321-2.376-.357-.5a23.327,23.327,0,0,1-4.364-13.621h6.123V26H17.287A14.287,14.287,0,0,0,3,40.287Z" transform="translate(1.041 24.983)"/>
            <rect id="Retângulo_1337" data-name="Retângulo 1337" width="4" height="4" transform="translate(40.229 52.229)"/>
            <rect id="Retângulo_1338" data-name="Retângulo 1338" width="4" height="4" transform="translate(48.229 61.229)"/>
            <rect id="Retângulo_1339" data-name="Retângulo 1339" width="4" height="4" transform="translate(48.229 52.229)"/>
            <rect id="Retângulo_1340" data-name="Retângulo 1340" width="4" height="4" transform="translate(48.229 44.229)"/>
            <path id="Caminho_37663" data-name="Caminho 37663" d="M89.106,29.123H53.548a10.2,10.2,0,1,0,0,8.164H89.106a2.04,2.04,0,0,0,2.041-2.041V31.164A2.04,2.04,0,0,0,89.106,29.123Z" transform="translate(33.311 21.86)"/>
            <path id="Caminho_37664" data-name="Caminho 37664" d="M49.41,69.352h0A14.287,14.287,0,1,1,61.117,46.9h22.99V10.164A8.164,8.164,0,0,0,75.942,2H37.164A8.164,8.164,0,0,0,29,10.164v106.13a8.164,8.164,0,0,0,8.164,8.164H75.942a8.164,8.164,0,0,0,8.164-8.164V63.229H61.119A14.274,14.274,0,0,1,49.41,69.352Zm4.082,16.781v7.711a4.082,4.082,0,0,1-8.164,0V86.133a6.123,6.123,0,1,1,8.164,0Z" transform="translate(28.106)"/>
            <path id="Caminho_37665" data-name="Caminho 37665" d="M2,59.111l28.574-4.082V50.99L2,55.072Z" transform="translate(0 50.997)"/>
            <path id="Caminho_37666" data-name="Caminho 37666" d="M2,69.3H30.574V54.99L2,59.072Z" transform="translate(0 55.161)"/>
            <path id="Caminho_37667" data-name="Caminho 37667" d="M25.471,54.389a17.416,17.416,0,0,1-5.1-12.317V35H12.2v7.072A17.416,17.416,0,0,1,7.1,54.389,17.416,17.416,0,0,0,2,66.706v.886l28.276-4.039A17.4,17.4,0,0,0,25.471,54.389Z" transform="translate(0 34.352)"/>
          </g>
        </g>
      </g>
    </g>
  </g>
</svg>
