<svg xmlns="http://www.w3.org/2000/svg" xmlns:xlink="http://www.w3.org/1999/xlink" width="74.333" height="74.009" viewBox="0 0 74.333 74.009"><defs><style>.a{fill:none;}.b{fill-rule:evenodd;fill:url(#a);}</style><radialGradient id="a" cx="0.149" cy="1.003" r="1.278" gradientUnits="objectBoundingBox"><stop offset="0" stop-color="#ffb140"/><stop offset="0.256" stop-color="#ff5445"/><stop offset="0.599" stop-color="#fc2b82"/><stop offset="1" stop-color="#8e40b7"/></radialGradient></defs><rect class="a" width="74" height="74" transform="translate(0.333 0.005)"/><path class="b" d="M61.2,17.252a4.441,4.441,0,1,1-4.441-4.441A4.441,4.441,0,0,1,61.2,17.252ZM37,49.339A12.335,12.335,0,1,1,49.34,37,12.335,12.335,0,0,1,37,49.339ZM37,18a19,19,0,1,0,19,19A19,19,0,0,0,37,18ZM37,6.668c9.881,0,11.051.038,14.953.216a20.47,20.47,0,0,1,6.871,1.274,11.467,11.467,0,0,1,4.255,2.768,11.458,11.458,0,0,1,2.768,4.255,20.485,20.485,0,0,1,1.274,6.871c.178,3.9.216,5.073.216,14.953s-.038,11.051-.216,14.953a20.47,20.47,0,0,1-1.274,6.871,12.258,12.258,0,0,1-7.023,7.023,20.485,20.485,0,0,1-6.871,1.274c-3.9.178-5.072.216-14.953.216s-11.052-.038-14.953-.216a20.47,20.47,0,0,1-6.871-1.274,11.467,11.467,0,0,1-4.255-2.768A11.465,11.465,0,0,1,8.157,58.83a20.485,20.485,0,0,1-1.274-6.871c-.178-3.9-.216-5.073-.216-14.953s.038-11.051.216-14.953a20.47,20.47,0,0,1,1.274-6.871,11.467,11.467,0,0,1,2.768-4.255A11.458,11.458,0,0,1,15.18,8.158a20.485,20.485,0,0,1,6.871-1.274C25.954,6.705,27.124,6.668,37,6.668ZM37,0c-10.05,0-11.31.043-15.257.223a27.161,27.161,0,0,0-8.982,1.72A18.133,18.133,0,0,0,6.211,6.211a18.133,18.133,0,0,0-4.268,6.554,27.164,27.164,0,0,0-1.72,8.982C.043,25.695,0,26.955,0,37s.043,11.31.223,15.257a27.164,27.164,0,0,0,1.72,8.982A18.133,18.133,0,0,0,6.211,67.8a18.141,18.141,0,0,0,6.554,4.268,27.164,27.164,0,0,0,8.982,1.72c3.947.18,5.207.223,15.257.223s11.31-.043,15.257-.223a27.164,27.164,0,0,0,8.982-1.72A18.922,18.922,0,0,0,72.067,61.244a27.164,27.164,0,0,0,1.72-8.982c.18-3.947.223-5.207.223-15.257s-.043-11.31-.223-15.257a27.164,27.164,0,0,0-1.72-8.982A18.141,18.141,0,0,0,67.8,6.211a18.141,18.141,0,0,0-6.554-4.268A27.164,27.164,0,0,0,52.262.223C48.315.043,47.054,0,37,0Z"/></svg>