<svg xmlns="http://www.w3.org/2000/svg" width="468.342" height="139.255" viewBox="0 0 468.342 139.255">
  <g id="Grupo_35789" data-name="Grupo 35789" transform="translate(-314.241 369.306)">
    <g id="Grupo_35788" data-name="Grupo 35788">
      <g id="Grupo_35787" data-name="Grupo 35787">
        <g id="Grupo_35786" data-name="Grupo 35786">
          <g id="Grupo_35785" data-name="Grupo 35785">
            <g id="Grupo_1" data-name="Grupo 1" transform="translate(127 -597)">
              <path id="Caminho_1" data-name="Caminho 1" d="M368.607,333.036c-17.046-2.948-28.371-18.3-28.371-35.714v-.384c0-17.537,11.177-32.672,28.371-35.4V227.724c-38.417,2.845-66.553,32.912-66.553,69.6v.383c0,36.809,27.972,66.6,66.553,69.244Z" fill="#f05a28"/>
              <path id="Caminho_2" data-name="Caminho 2" d="M380.17,227.694V261.6c17.213,2.926,28.561,18.293,28.561,35.721v.383c0,17.555-11.2,32.7-28.561,35.409v33.8c38.416-2.845,66.553-32.911,66.553-69.6v-.384C446.723,260.132,418.749,230.336,380.17,227.694Z" fill="#f05a28"/>
            </g>
            <path id="Caminho_1-2" data-name="Caminho 1" d="M187.241,344.138,211.224,321.5c6.524,7.868,12.664,12.471,20.914,12.471,9.4,0,15.349-6.331,15.349-18.8v-85h37.03v85.188c0,16.884-4.221,28.78-13.238,37.8-8.826,8.826-21.49,13.621-36.839,13.621C211.032,366.777,196.642,356.993,187.241,344.138Z" transform="translate(127 -597)" fill="#2c17b1"/>
            <path id="Caminho_2-2" data-name="Caminho 2" d="M528.759,230.17h34.729l55.257,70.989V230.17h36.838V364.476H622.966L565.6,290.8v73.677H528.759Z" transform="translate(127 -597)" fill="#2c17b1"/>
            <path id="Caminho_3" data-name="Caminho 3" d="M466.788,230.17H504.2V364.476H466.788Z" transform="translate(127 -597)" fill="#2c17b1"/>
          </g>
        </g>
      </g>
    </g>
  </g>
</svg>
