<svg id="Componente_11_1" data-name="Componente 11 – 1" xmlns="http://www.w3.org/2000/svg" width="137.803" height="138.875" viewBox="0 0 137.803 138.875">
  <g id="Grupo_35774" data-name="Grupo 35774" transform="translate(-4456.9 1932.4)">
    <g id="Grupo_35773" data-name="Grupo 35773">
      <g id="Layer_4" transform="translate(4456.693 -1932.422)">
        <g id="Grupo_35704" data-name="Grupo 35704" transform="translate(0.207 0.022)">
          <path id="Caminho_37657" data-name="Caminho 37657" d="M133.965,17.186H.207v8.106H4.258v81.064h8.106V29.343h121.6V25.292h4.046V17.186Z" transform="translate(-0.207 32.519)"/>
          <path id="Caminho_37658" data-name="Caminho 37658" d="M78.118,23.614H29.656V41.3h48.46V23.614Zm-24.134,12.9a4.051,4.051,0,1,1,4.054-4.051A4.043,4.043,0,0,1,53.984,36.512Z" transform="translate(55.625 44.705)"/>
          <path id="Caminho_37659" data-name="Caminho 37659" d="M29.693,50.249H78.141V31.88H29.693ZM53.914,37.014a4.051,4.051,0,1,1-4.043,4.048A4.044,4.044,0,0,1,53.914,37.014Z" transform="translate(55.695 60.377)"/>
          <path id="Caminho_37660" data-name="Caminho 37660" d="M29.656,62.407h48.46V40.367H29.656ZM53.984,47.332a4.051,4.051,0,1,1-4.043,4.051A4.049,4.049,0,0,1,53.984,47.332Z" transform="translate(55.625 76.467)"/>
          <path id="Caminho_37661" data-name="Caminho 37661" d="M10.265,41.862h57.35V.022H7.024V3.034C7.018,3.121,7,3.2,7,3.28V41.862h3.267Z" transform="translate(12.668 -0.022)"/>
        </g>
      </g>
    </g>
  </g>
</svg>
