<svg id="Componente_7_1" data-name="Componente 7 – 1" xmlns="http://www.w3.org/2000/svg" width="102.685" height="167.882" viewBox="0 0 102.685 167.882">
  <g id="Grupo_35769" data-name="Grupo 35769" transform="translate(-3680.543 1957.4)">
    <g id="Grupo_35768" data-name="Grupo 35768">
      <g id="Grupo_35767" data-name="Grupo 35767">
        <g id="iconfinder_vendingmachine_1936906" transform="translate(3680.543 -1957.4)">
          <path id="Caminho_37573" data-name="Caminho 37573" d="M132.425,177.583a13.078,13.078,0,0,1-13.039,13.039H46.039A13.078,13.078,0,0,1,33,177.583V39.039A13.078,13.078,0,0,1,46.039,26h73.346a13.078,13.078,0,0,1,13.039,13.039Z" transform="translate(-31.37 -24.37)"/>
          <path id="Caminho_37574" data-name="Caminho 37574" d="M100.937,120.386a9.808,9.808,0,0,1-9.78,9.78H48.78a9.808,9.808,0,0,1-9.78-9.78V43.78A9.808,9.808,0,0,1,48.78,34H91.157a9.808,9.808,0,0,1,9.78,9.78Z" transform="translate(-27.591 -19.331)"/>
          <path id="Caminho_37576" data-name="Caminho 37576" d="M95.669,82.819a3.269,3.269,0,0,1-3.26,3.26H84.26A3.269,3.269,0,0,1,81,82.819V63.26A3.269,3.269,0,0,1,84.26,60h8.15a3.269,3.269,0,0,1,3.26,3.26Z" transform="translate(-1.134 -2.953)"/>
          <path id="Caminho_37578" data-name="Caminho 37578" d="M95.669,58.409a3.269,3.269,0,0,1-3.26,3.26H84.26A3.269,3.269,0,0,1,81,58.409V50.26A3.269,3.269,0,0,1,84.26,47h8.15a3.269,3.269,0,0,1,3.26,3.26Z" transform="translate(-1.134 -11.142)"/>
          <path id="Caminho_37579" data-name="Caminho 37579" d="M90.78,66.26H82.63a1.63,1.63,0,1,1,0-3.26h8.15a1.63,1.63,0,0,1,0,3.26Z" transform="translate(-1.134 -1.063)" fill="#fff"/>
          <path id="Caminho_37580" data-name="Caminho 37580" d="M119.386,126.039H46.039A13.078,13.078,0,0,1,33,113v9.78a13.078,13.078,0,0,0,13.039,13.039h73.346a13.078,13.078,0,0,0,13.039-13.039V113A13.078,13.078,0,0,1,119.386,126.039Z" transform="translate(-31.37 30.433)"/>
          <path id="Caminho_37581" data-name="Caminho 37581" d="M90.78,70.26H82.63a1.63,1.63,0,1,1,0-3.26h8.15a1.63,1.63,0,0,1,0,3.26Z" transform="translate(-1.134 1.457)" fill="#fff"/>
          <path id="Caminho_37582" data-name="Caminho 37582" d="M90.78,74.26H82.63a1.63,1.63,0,1,1,0-3.26h8.15a1.63,1.63,0,0,1,0,3.26Z" transform="translate(-1.134 3.976)" fill="#fff"/>
          <path id="Caminho_37583" data-name="Caminho 37583" d="M85.63,82.929A1.54,1.54,0,0,1,84,81.3V66.63a1.63,1.63,0,1,1,3.26,0V81.3A1.54,1.54,0,0,1,85.63,82.929Z" transform="translate(0.756 0.197)" fill="#fff"/>
          <path id="Caminho_37584" data-name="Caminho 37584" d="M89.52,54.26H84.63a1.63,1.63,0,1,1,0-3.26h4.89a1.63,1.63,0,0,1,0,3.26Z" transform="translate(0.126 -8.622)" fill="#fff"/>
          <path id="Caminho_37585" data-name="Caminho 37585" d="M85.63,96.3A1.54,1.54,0,0,1,84,94.669V81.63a1.63,1.63,0,0,1,3.26,0V94.669A1.54,1.54,0,0,1,85.63,96.3Z" transform="translate(0.756 9.646)" fill="#fff"/>
          <path id="Caminho_37586" data-name="Caminho 37586" d="M120.016,192.882H46.669A14.608,14.608,0,0,1,32,178.212V39.669A14.608,14.608,0,0,1,46.669,25h73.346a14.608,14.608,0,0,1,14.669,14.669V178.212A14.608,14.608,0,0,1,120.016,192.882ZM46.669,28.26A11.339,11.339,0,0,0,35.26,39.669V178.212a11.339,11.339,0,0,0,11.409,11.409h73.346a11.339,11.339,0,0,0,11.409-11.409V39.669A11.339,11.339,0,0,0,120.016,28.26Z" transform="translate(-32 -25)" fill="#fff"/>
          <path id="Caminho_37587" data-name="Caminho 37587" d="M91.787,132.425H49.409A11.339,11.339,0,0,1,38,121.016V44.409A11.339,11.339,0,0,1,49.409,33H91.787A11.339,11.339,0,0,1,103.2,44.409v76.606A11.339,11.339,0,0,1,91.787,132.425ZM49.409,36.26a8.07,8.07,0,0,0-8.15,8.15v76.606a8.07,8.07,0,0,0,8.15,8.15H91.787a8.07,8.07,0,0,0,8.15-8.15V44.409a8.07,8.07,0,0,0-8.15-8.15Z" transform="translate(-28.22 -19.961)" fill="#fff"/>
          <path id="Caminho_37588" data-name="Caminho 37588" d="M56.039,51.409a3.269,3.269,0,0,1-3.26,3.26H46.26A3.269,3.269,0,0,1,43,51.409V43.26A3.269,3.269,0,0,1,46.26,40h6.52a3.269,3.269,0,0,1,3.26,3.26Z" transform="translate(-25.071 -15.551)" fill="#fff"/>
          <path id="Caminho_37589" data-name="Caminho 37589" d="M67.039,51.409a3.269,3.269,0,0,1-3.26,3.26H57.26A3.269,3.269,0,0,1,54,51.409V43.26A3.269,3.269,0,0,1,57.26,40h6.52a3.269,3.269,0,0,1,3.26,3.26Z" transform="translate(-18.142 -15.551)" fill="#fff"/>
          <path id="Caminho_37590" data-name="Caminho 37590" d="M78.039,51.409a3.269,3.269,0,0,1-3.26,3.26H68.26A3.269,3.269,0,0,1,65,51.409V43.26A3.269,3.269,0,0,1,68.26,40h6.52a3.269,3.269,0,0,1,3.26,3.26Z" transform="translate(-11.213 -15.551)" fill="#fff"/>
          <path id="Caminho_37591" data-name="Caminho 37591" d="M56.039,52.445c0,1.3-1.467,2.445-3.26,2.445H46.26c-1.793,0-3.26-1.141-3.26-2.445S44.467,50,46.26,50h6.52C54.572,50,56.039,51.141,56.039,52.445Z" transform="translate(-25.071 -9.252)" fill="#fff"/>
          <path id="Caminho_37592" data-name="Caminho 37592" d="M67.039,52.445c0,1.3-1.467,2.445-3.26,2.445H57.26c-1.793,0-3.26-1.141-3.26-2.445S55.467,50,57.26,50h6.52C65.572,50,67.039,51.141,67.039,52.445Z" transform="translate(-18.142 -9.252)" fill="#fff"/>
          <path id="Caminho_37593" data-name="Caminho 37593" d="M78.039,52.445c0,1.3-1.467,2.445-3.26,2.445H68.26c-1.793,0-3.26-1.141-3.26-2.445S66.467,50,68.26,50h6.52C76.572,50,78.039,51.141,78.039,52.445Z" transform="translate(-11.213 -9.252)" fill="#fff"/>
          <path id="Caminho_37594" data-name="Caminho 37594" d="M56.039,69.409a3.269,3.269,0,0,1-3.26,3.26H46.26A3.269,3.269,0,0,1,43,69.409V61.26A3.269,3.269,0,0,1,46.26,58h6.52a3.269,3.269,0,0,1,3.26,3.26Z" transform="translate(-25.071 -4.213)" fill="#fff"/>
          <path id="Caminho_37595" data-name="Caminho 37595" d="M67.039,69.409a3.269,3.269,0,0,1-3.26,3.26H57.26A3.269,3.269,0,0,1,54,69.409V61.26A3.269,3.269,0,0,1,57.26,58h6.52a3.269,3.269,0,0,1,3.26,3.26Z" transform="translate(-18.142 -4.213)" fill="#fff"/>
          <path id="Caminho_37596" data-name="Caminho 37596" d="M78.039,69.409a3.269,3.269,0,0,1-3.26,3.26H68.26A3.269,3.269,0,0,1,65,69.409V61.26A3.269,3.269,0,0,1,68.26,58h6.52a3.269,3.269,0,0,1,3.26,3.26Z" transform="translate(-11.213 -4.213)" fill="#fff"/>
          <path id="Caminho_37597" data-name="Caminho 37597" d="M56.039,70.445c0,1.3-1.467,2.445-3.26,2.445H46.26c-1.793,0-3.26-1.141-3.26-2.445S44.467,68,46.26,68h6.52C54.572,68,56.039,69.141,56.039,70.445Z" transform="translate(-25.071 2.087)" fill="#fff"/>
          <path id="Caminho_37598" data-name="Caminho 37598" d="M67.039,70.445c0,1.3-1.467,2.445-3.26,2.445H57.26c-1.793,0-3.26-1.141-3.26-2.445S55.467,68,57.26,68h6.52C65.572,68,67.039,69.141,67.039,70.445Z" transform="translate(-18.142 2.087)" fill="#fff"/>
          <path id="Caminho_37599" data-name="Caminho 37599" d="M78.039,70.445c0,1.3-1.467,2.445-3.26,2.445H68.26c-1.793,0-3.26-1.141-3.26-2.445S66.467,68,68.26,68h6.52C76.572,68,78.039,69.141,78.039,70.445Z" transform="translate(-11.213 2.087)" fill="#fff"/>
          <path id="Caminho_37600" data-name="Caminho 37600" d="M56.039,87.409a3.269,3.269,0,0,1-3.26,3.26H46.26A3.269,3.269,0,0,1,43,87.409V79.26A3.269,3.269,0,0,1,46.26,76h6.52a3.269,3.269,0,0,1,3.26,3.26Z" transform="translate(-25.071 7.126)" fill="#fff"/>
          <path id="Caminho_37601" data-name="Caminho 37601" d="M67.039,87.409a3.269,3.269,0,0,1-3.26,3.26H57.26A3.269,3.269,0,0,1,54,87.409V79.26A3.269,3.269,0,0,1,57.26,76h6.52a3.269,3.269,0,0,1,3.26,3.26Z" transform="translate(-18.142 7.126)" fill="#fff"/>
          <path id="Caminho_37602" data-name="Caminho 37602" d="M78.039,87.409a3.269,3.269,0,0,1-3.26,3.26H68.26A3.269,3.269,0,0,1,65,87.409V79.26A3.269,3.269,0,0,1,68.26,76h6.52a3.269,3.269,0,0,1,3.26,3.26Z" transform="translate(-11.213 7.126)" fill="#fff"/>
          <path id="Caminho_37603" data-name="Caminho 37603" d="M56.039,88.445c0,1.3-1.467,2.445-3.26,2.445H46.26c-1.793,0-3.26-1.141-3.26-2.445S44.467,86,46.26,86h6.52C54.572,86,56.039,87.141,56.039,88.445Z" transform="translate(-25.071 13.425)" fill="#fff"/>
          <path id="Caminho_37605" data-name="Caminho 37605" d="M67.039,88.445c0,1.3-1.467,2.445-3.26,2.445H57.26c-1.793,0-3.26-1.141-3.26-2.445S55.467,86,57.26,86h6.52C65.572,86,67.039,87.141,67.039,88.445Z" transform="translate(-18.142 13.425)" fill="#fff"/>
          <path id="Caminho_37606" data-name="Caminho 37606" d="M78.039,88.445c0,1.3-1.467,2.445-3.26,2.445H68.26c-1.793,0-3.26-1.141-3.26-2.445S66.467,86,68.26,86h6.52C76.572,86,78.039,87.141,78.039,88.445Z" transform="translate(-11.213 13.425)" fill="#fff"/>
          <path id="Caminho_37607" data-name="Caminho 37607" d="M95.047,120.189H46.15a8.07,8.07,0,0,1-8.15-8.15v-4.89A8.07,8.07,0,0,1,46.15,99h48.9a8.07,8.07,0,0,1,8.15,8.15v4.89A8.07,8.07,0,0,1,95.047,120.189ZM46.15,102.26a4.8,4.8,0,0,0-4.89,4.89v4.89a4.8,4.8,0,0,0,4.89,4.89h48.9a4.8,4.8,0,0,0,4.89-4.89v-4.89a4.8,4.8,0,0,0-4.89-4.89Z" transform="translate(-28.22 21.614)" fill="#fff"/>
          <path id="Caminho_37608" data-name="Caminho 37608" d="M93.039,115.669H84.89A4.8,4.8,0,0,1,80,110.78v-4.89A4.8,4.8,0,0,1,84.89,101h8.15a4.8,4.8,0,0,1,4.89,4.89v4.89A4.8,4.8,0,0,1,93.039,115.669ZM84.89,104.26a1.54,1.54,0,0,0-1.63,1.63v4.89a1.54,1.54,0,0,0,1.63,1.63h8.15a1.54,1.54,0,0,0,1.63-1.63v-4.89a1.54,1.54,0,0,0-1.63-1.63Z" transform="translate(-1.764 22.874)" fill="#fff"/>
          <path id="Caminho_37609" data-name="Caminho 37609" d="M93.039,88.339H84.89A4.8,4.8,0,0,1,80,83.449V63.89A4.8,4.8,0,0,1,84.89,59h8.15a4.8,4.8,0,0,1,4.89,4.89V83.449A4.8,4.8,0,0,1,93.039,88.339ZM84.89,62.26a1.54,1.54,0,0,0-1.63,1.63V83.449a1.54,1.54,0,0,0,1.63,1.63h8.15a1.54,1.54,0,0,0,1.63-1.63V63.89a1.54,1.54,0,0,0-1.63-1.63Z" transform="translate(-1.764 -3.583)" fill="#fff"/>
          <path id="Caminho_37610" data-name="Caminho 37610" d="M93.039,63.929H84.89A4.8,4.8,0,0,1,80,59.039V50.89A4.8,4.8,0,0,1,84.89,46h8.15a4.8,4.8,0,0,1,4.89,4.89v8.15A4.8,4.8,0,0,1,93.039,63.929ZM84.89,49.26a1.54,1.54,0,0,0-1.63,1.63v8.15a1.54,1.54,0,0,0,1.63,1.63h8.15a1.54,1.54,0,0,0,1.63-1.63V50.89a1.54,1.54,0,0,0-1.63-1.63Z" transform="translate(-1.764 -11.772)" fill="#fff"/>
          <path id="Caminho_37611" data-name="Caminho 37611" d="M52.15,44.26H45.63a1.63,1.63,0,1,1,0-3.26h6.52a1.63,1.63,0,1,1,0,3.26Z" transform="translate(-24.441 -14.921)"/>
          <path id="Caminho_37612" data-name="Caminho 37612" d="M63.15,44.26H56.63a1.63,1.63,0,1,1,0-3.26h6.52a1.63,1.63,0,0,1,0,3.26Z" transform="translate(-17.512 -14.921)"/>
          <path id="Caminho_37613" data-name="Caminho 37613" d="M74.15,44.26H67.63a1.63,1.63,0,0,1,0-3.26h6.52a1.63,1.63,0,0,1,0,3.26Z" transform="translate(-10.583 -14.921)"/>
          <path id="Caminho_37614" data-name="Caminho 37614" d="M52.15,62.26H45.63a1.63,1.63,0,1,1,0-3.26h6.52a1.63,1.63,0,1,1,0,3.26Z" transform="translate(-24.441 -3.583)"/>
          <path id="Caminho_37615" data-name="Caminho 37615" d="M63.15,62.26H56.63a1.63,1.63,0,1,1,0-3.26h6.52a1.63,1.63,0,1,1,0,3.26Z" transform="translate(-17.512 -3.583)"/>
          <path id="Caminho_37616" data-name="Caminho 37616" d="M74.15,62.26H67.63a1.63,1.63,0,1,1,0-3.26h6.52a1.63,1.63,0,1,1,0,3.26Z" transform="translate(-10.583 -3.583)"/>
          <path id="Caminho_37617" data-name="Caminho 37617" d="M52.15,80.26H45.63a1.63,1.63,0,1,1,0-3.26h6.52a1.63,1.63,0,1,1,0,3.26Z" transform="translate(-24.441 7.756)"/>
          <path id="Caminho_37618" data-name="Caminho 37618" d="M63.15,80.26H56.63a1.63,1.63,0,1,1,0-3.26h6.52a1.63,1.63,0,1,1,0,3.26Z" transform="translate(-17.512 7.756)"/>
          <path id="Caminho_37619" data-name="Caminho 37619" d="M74.15,80.26H67.63a1.63,1.63,0,1,1,0-3.26h6.52a1.63,1.63,0,1,1,0,3.26Z" transform="translate(-10.583 7.756)"/>
          <path id="Caminho_37620" data-name="Caminho 37620" d="M120.866,53.449a1.54,1.54,0,0,1-1.63-1.63V38.78c0-6.031-1.3-6.52-4.89-6.52H42.63a1.63,1.63,0,1,1,0-3.26h71.716c6.031,0,8.15,2.608,8.15,9.78V51.819A1.54,1.54,0,0,1,120.866,53.449Z" transform="translate(-26.331 -22.48)" fill="#fff"/>
          <path id="Caminho_37621" data-name="Caminho 37621" d="M81.3,117.26H66.63a1.63,1.63,0,1,1,0-3.26H81.3a1.63,1.63,0,0,1,0,3.26Z" transform="translate(-11.213 31.063)" fill="#fff"/>
          <path id="Caminho_37622" data-name="Caminho 37622" d="M73.6,117.26H42.63a1.63,1.63,0,1,1,0-3.26H73.6a1.63,1.63,0,1,1,0,3.26Z" transform="translate(-26.331 31.063)" fill="#fff"/>
          <path id="Caminho_37623" data-name="Caminho 37623" d="M89.15,38.26H82.63a1.63,1.63,0,1,1,0-3.26h6.52a1.63,1.63,0,0,1,0,3.26Z" transform="translate(-1.134 -18.701)" fill="#fff"/>
          <path id="Caminho_37624" data-name="Caminho 37624" d="M85.89,42.26H82.63a1.63,1.63,0,1,1,0-3.26h3.26a1.63,1.63,0,0,1,0,3.26Z" transform="translate(-1.134 -16.181)" fill="#fff"/>
        </g>
      </g>
    </g>
  </g>
</svg>
