<svg xmlns="http://www.w3.org/2000/svg" xmlns:xlink="http://www.w3.org/1999/xlink" width="66.182" height="66.172" viewBox="0 0 66.182 66.172"><defs><style>.a{fill:#25d366;}.b{fill:#fff;}.c{filter:url(#a);}</style><filter id="a" x="0" y="0" width="66.182" height="66.172" filterUnits="userSpaceOnUse"><feOffset dy="3" input="SourceAlpha"/><feGaussianBlur stdDeviation="3" result="b"/><feFlood flood-opacity="0.161"/><feComposite operator="in" in2="b"/><feComposite in="SourceGraphic"/></filter></defs><g transform="translate(-4 -7)"><g class="c" transform="matrix(1, 0, 0, 1, 4, 7)"><path class="a" d="M37.091,13A24.09,24.09,0,0,0,16.936,50.286L13.833,60.8l10.915-3.024A24.088,24.088,0,1,0,37.091,13Z" transform="translate(-4 -7)"/></g><path class="b" d="M148.939,153.378a.874.874,0,0,0-.506-.724c-1.943-.892-3.9-1.785-5.839-2.677a.548.548,0,0,0-.644.139l-2.637,2.974a.722.722,0,0,1-.823.2,18.727,18.727,0,0,1-5.076-3.123,18.919,18.919,0,0,1-4.273-5.3,4.618,4.618,0,0,0,1.814-2.369.035.035,0,0,1,.01-.02,4.018,4.018,0,0,0-.089-2.617,27.941,27.941,0,0,0-1.983-4.521c-.069-.069-.149-.139-.149-.139a1.75,1.75,0,0,0-1.091-.436c-.139-.01-.287-.01-.446-.01a8.292,8.292,0,0,0-1.16.03,2.993,2.993,0,0,0-1.844,1.16,7.841,7.841,0,0,0-1.388,2.518c-.03.1-.059.188-.089.288a7.092,7.092,0,0,0,.159,4.3,23.417,23.417,0,0,0,2.122,4.481,24.8,24.8,0,0,0,4.788,5.651,22.882,22.882,0,0,0,5.919,4.223,20.539,20.539,0,0,0,6.434,1.874,7.1,7.1,0,0,0,3.143-.436,6.638,6.638,0,0,0,1.547-.833,4.982,4.982,0,0,0,2.072-3.291v-.03A5.933,5.933,0,0,0,148.939,153.378Z" transform="translate(-98.613 -109.675)"/></g></svg>