<svg id="Componente_13_1" data-name="Componente 13 – 1" xmlns="http://www.w3.org/2000/svg" width="150.5" height="111.43" viewBox="0 0 150.5 111.43">
  <g id="Grupo_35782" data-name="Grupo 35782" transform="translate(-4318 1581.5)">
    <g id="Grupo_35781" data-name="Grupo 35781">
      <g id="XMLID_429_" transform="translate(4312 -1652.4)">
        <path id="XMLID_433_" d="M81.25,70.9A119.849,119.849,0,0,0,6,97.388l9.361,9.361a106.991,106.991,0,0,1,131.778,0l9.361-9.361A119.849,119.849,0,0,0,81.25,70.9Z" transform="translate(0)"/>
        <path id="XMLID_432_" d="M73.3,183.7l9.421,9.421a78.428,78.428,0,0,1,91.143,0l9.421-9.421a91.775,91.775,0,0,0-109.985,0Z" transform="translate(-47.043 -66.055)"/>
        <path id="XMLID_431_" d="M141.1,270.094l9.542,9.542a50.156,50.156,0,0,1,50.026,0l9.542-9.542a63.143,63.143,0,0,0-69.11,0Z" transform="translate(-94.435 -132.041)"/>
        <circle id="XMLID_430_" cx="13.304" cy="13.304" r="13.304" transform="translate(67.946 155.722)"/>
      </g>
    </g>
  </g>
</svg>
